# xmcd
# Copyright (C) 1995-1998 Ti Kan
#
# Track frame offsets:
#       150
#       2199
#       83906
#       163153
#       235166
#
# Disc length: 3159 seconds
#
# Revision: 0
# Processed by: cddbd v1.5.2PL0 Copyright (c) Steve Scherf et al.
# Submitted via: CD-Import v1.0
#
DISCID=330c5505
DTITLE=Michael Ende - Momo
DYEAR=1900
DGENRE=
TTITLE0=Anmodi Momo3
TTITLE1=Momo3.1
TTITLE2=Momo3.2
TTITLE3=Momo3.3
TTITLE4=Abmodi Momo3
EXTD=
EXTT0=
EXTT1=
EXTT2=
EXTT3=
EXTT4=
PLAYORDER=
